<svg xmlns="http://www.w3.org/2000/svg" width="30" height="380" viewBox="0 0 30 380"><path d="M0 0h30v380H0z" style="fill:#262525;stroke:none;stroke-width:14.454;stroke-linecap:round;stroke-dasharray:.722706,.722706;fill-opacity:1"/><path d="M9.775 18.446H6.481v2.291H9.51v1.706H6.48v3.626H4.378v-9.336h5.397zm3.392 7.623H11.11V16.2h2.057zm2.774-7.721q-.521 0-.853-.306-.332-.313-.332-.762 0-.462.332-.755t.853-.293q.527 0 .853.293.332.293.332.755 0 .469-.332.768-.326.3-.853.3m1.015 7.721H14.9v-6.666h2.057zm3.816-.774h-.027v3.84h-2.057v-9.732h2.057v1.002h.027q.761-1.165 2.141-1.165 1.296 0 2 .892.709.885.709 2.415 0 1.667-.827 2.676-.82 1.01-2.188 1.01-1.204 0-1.835-.938m-.06-2.735v.534q0 .69.365 1.126.365.437.958.437.703 0 1.087-.54.39-.548.39-1.544 0-1.758-1.367-1.758-.631 0-1.035.482-.397.475-.397 1.263" aria-label="Flip" style="font-weight:700;font-size:13.3333px;line-height:1.25;font-family:&quot;Segoe UI&quot;;-inkscape-font-specification:&quot;Segoe UI Bold&quot;;letter-spacing:0;word-spacing:0;fill:#f9f9f9"/><path d="M2.078 241.378h25.845v104.867H2.078z" style="fill:#f9f9f9;fill-opacity:1;stroke:none;stroke-width:34.0693;stroke-linecap:round;stroke-dasharray:1.70348,1.70348"/><path d="M11.445 318.84q-.613.296-1.601.296-1.29 0-2.028-.757-.738-.758-.738-2.02 0-1.344.828-2.18.832-.835 2.156-.835.82 0 1.383.207v1.214q-.562-.336-1.28-.336-.79 0-1.274.497-.485.496-.485 1.343 0 .813.457 1.297.457.48 1.23.48.739 0 1.352-.359zm4.696.199h-1.23v-2.274q0-.879-.641-.879-.329 0-.532.247-.203.246-.203.625v2.28h-1.234v-5.921h1.234v2.516h.016q.453-.692 1.23-.692 1.36 0 1.36 1.64zm3.464.097q-1.203 0-1.96-.78-.758-.79-.758-2.044 0-1.324.77-2.148.765-.82 2.038-.82 1.2 0 1.938.785.742.78.742 2.07 0 1.316-.77 2.129-.027.027-.05.055-.024.023-.051.046l1.418 1.364h-1.766l-.742-.754q-.367.097-.809.097m.055-4.707q-.66 0-1.055.5-.39.496-.39 1.317 0 .832.39 1.316.391.485 1.024.485.652 0 1.035-.47.383-.476.383-1.308 0-.867-.371-1.355-.367-.485-1.016-.485" aria-label="ChQ" style="font-weight:700;font-size:8px;line-height:1.25;font-family:&quot;Segoe UI&quot;;-inkscape-font-specification:&quot;Segoe UI Bold&quot;;letter-spacing:0;word-spacing:0"/><path d="m12.186 279.076-.153 3.86h-1l-.144-3.86zm-.641 5.692q-.313 0-.516-.188-.203-.191-.203-.46 0-.282.203-.462.207-.18.516-.18.312 0 .512.184.199.18.199.457 0 .282-.2.465-.195.184-.511.184m4.312.008q-1.203 0-1.96-.782-.758-.789-.758-2.043 0-1.324.77-2.148.765-.82 2.038-.82 1.2 0 1.938.785.742.781.742 2.07 0 1.317-.77 2.13-.027.026-.05.054l-.051.047 1.418 1.363h-1.766l-.742-.754q-.367.098-.809.098m.055-4.707q-.66 0-1.055.5-.39.496-.39 1.316 0 .832.39 1.316.391.485 1.024.485.652 0 1.035-.469.383-.476.383-1.308 0-.868-.371-1.356-.367-.484-1.016-.484" aria-label="!Q" style="font-weight:700;font-size:8px;line-height:1.25;font-family:&quot;Segoe UI&quot;;-inkscape-font-specification:&quot;Segoe UI Bold&quot;;letter-spacing:0;word-spacing:0"/><path d="M14.701 249.702q-1.203 0-1.96-.781-.759-.79-.759-2.043 0-1.324.77-2.149.766-.82 2.039-.82 1.2 0 1.938.785.742.781.742 2.07 0 1.317-.77 2.13-.027.027-.05.054-.024.024-.051.047l1.418 1.363h-1.766l-.742-.754q-.367.098-.809.098m.055-4.707q-.66 0-1.055.5-.39.496-.39 1.316 0 .832.39 1.317.39.484 1.024.484.652 0 1.035-.469.383-.476.383-1.308 0-.867-.372-1.356-.367-.484-1.015-.484" aria-label="Q" style="font-weight:700;font-size:8px;line-height:1.25;font-family:&quot;Segoe UI&quot;;-inkscape-font-specification:&quot;Segoe UI Bold&quot;;letter-spacing:0;word-spacing:0"/><path d="M12.592 62.02h-1.598v4.574H9.73V62.02h-1.59v-1.027h4.453zm3.754-1.027-2.73 6.531h-1.102l2.718-6.531zm.547 5.601v-5.601h1.984q2.984 0 2.984 2.73 0 1.309-.816 2.09-.813.781-2.168.781zm1.261-4.574v3.551h.625q.82 0 1.285-.492.47-.492.47-1.34 0-.8-.466-1.258-.46-.46-1.297-.46z" aria-label="T/D" style="font-weight:700;font-size:8px;line-height:1.25;font-family:&quot;Segoe UI&quot;;-inkscape-font-specification:&quot;Segoe UI Bold&quot;;letter-spacing:0;word-spacing:0;fill:#f9f9f9"/><path d="M9.25 104.513q-.613.297-1.602.297-1.289 0-2.027-.758t-.738-2.02q0-1.343.828-2.179.832-.836 2.156-.836.82 0 1.383.207v1.215q-.562-.336-1.281-.336-.79 0-1.274.496t-.484 1.344q0 .812.457 1.297.457.48 1.23.48.739 0 1.352-.36zm2.09.2h-1.235V98.79h1.235zm2.945.097q-1 0-1.574-.558-.57-.563-.57-1.524 0-.992.593-1.55.594-.563 1.606-.563.996 0 1.562.562.567.559.567 1.48 0 .997-.586 1.575-.582.578-1.598.578m.031-3.25q-.437 0-.68.3-.241.302-.241.852 0 1.153.93 1.153.886 0 .886-1.184 0-1.12-.895-1.12m5.985 3.008q-.418.242-1.207.242-.922 0-1.492-.558-.57-.56-.57-1.442 0-1.02.609-1.605.613-.59 1.636-.59.707 0 1.024.187v1.047q-.387-.289-.863-.289-.532 0-.844.313-.309.308-.309.855 0 .531.297.836.297.3.816.3.461 0 .903-.288zm4.816.144h-1.48l-1.278-1.984h-.015v1.984h-1.235v-5.921h1.235v3.77h.015l1.192-1.849h1.465l-1.434 1.88z" aria-label="Clock" style="font-weight:700;font-size:8px;line-height:1.25;font-family:&quot;Segoe UI&quot;;-inkscape-font-specification:&quot;Segoe UI Bold&quot;;letter-spacing:0;word-spacing:0;fill:#f9f9f9"/><path d="M15.166 97.859c.012-.012.01-.024.01-.024l1.314-2.112 1.141-1.833c-.003-.011.053-.095.02-.195-.022-.07-.112-.082-.163-.084h-4.975c-.05.001-.141.013-.163.083-.033.1.016.188.02.196l1.142 1.833 1.314 2.112s.013.024.031.052c.028.038.075.08.144.087a.2.2 0 0 0 .144-.087c.01-.01.018-.018.018-.032z" style="fill:#e6e6e6;fill-opacity:1;stroke-width:.407936;stroke-linecap:round;stroke-dasharray:.0203969,.0203969"/><path d="M18.768 40.302V34.7h1.984q2.985 0 2.985 2.73 0 1.31-.817 2.09-.812.782-2.168.782zm1.262-4.574v3.55h.625q.82 0 1.285-.492.469-.492.469-1.34 0-.8-.465-1.257-.461-.461-1.297-.461z" aria-label="D" style="font-weight:700;font-size:8px;line-height:1.25;font-family:&quot;Segoe UI&quot;;-inkscape-font-specification:&quot;Segoe UI Bold&quot;;letter-spacing:0;word-spacing:0;fill:#f9f9f9"/><path d="M23.479 45.37H21.88v4.575h-1.265v-4.574h-1.59v-1.028h4.453z" aria-label="T" style="font-weight:700;font-size:8px;line-height:1.25;font-family:&quot;Segoe UI&quot;;-inkscape-font-specification:&quot;Segoe UI Bold&quot;;letter-spacing:0;word-spacing:0;fill:#f9f9f9"/><path d="M9.328 138.066v-1.25q.34.285.738.43.399.14.805.14.238 0 .414-.042.18-.043.297-.118.121-.078.18-.18.058-.105.058-.226 0-.164-.093-.293-.094-.129-.258-.238-.16-.11-.383-.211-.223-.102-.48-.207-.657-.274-.981-.668-.32-.395-.32-.953 0-.438.175-.75.176-.317.477-.52.305-.203.703-.297.399-.097.844-.097.437 0 .773.054.34.051.625.16v1.169q-.14-.098-.308-.172-.164-.075-.34-.121-.176-.051-.352-.075-.172-.023-.328-.023-.215 0-.39.043-.176.039-.297.113t-.188.18q-.066.101-.066.23 0 .141.074.254.074.11.211.211.137.098.332.196.195.093.441.195.336.14.602.3.27.157.46.356.192.2.294.457.101.254.101.594 0 .469-.18.789-.175.316-.48.516-.304.195-.71.28-.403.087-.852.087-.461 0-.88-.078-.413-.078-.718-.235m8.215-1.433h-2.61q.063.87 1.098.87.66 0 1.16-.312v.89q-.554.298-1.441.298-.969 0-1.504-.535-.535-.54-.535-1.5 0-.997.578-1.579t1.422-.582q.875 0 1.352.52.48.52.48 1.41zm-1.145-.758q0-.86-.695-.86-.297 0-.515.247-.215.246-.262.613zm4.297 2.36q-.273.144-.824.144-1.305 0-1.305-1.356v-1.832h-.648v-.91h.648v-.863l1.23-.352v1.215h.9v.91h-.9v1.617q0 .625.497.625.195 0 .402-.113z" aria-label="Set" style="font-weight:700;font-size:8px;line-height:1.25;font-family:&quot;Segoe UI&quot;;-inkscape-font-specification:&quot;Segoe UI Bold&quot;;letter-spacing:0;word-spacing:0;fill:#f9f9f9"/><path d="M14.18 171.756h-1.45l-.87-1.441q-.098-.164-.188-.293-.09-.13-.184-.22-.09-.093-.191-.14-.098-.05-.215-.05h-.34v2.144H9.48v-5.602h2q2.04 0 2.04 1.524 0 .293-.09.543-.09.246-.254.445-.164.2-.399.344-.23.144-.515.226v.016q.125.04.242.129.117.086.226.203.11.117.208.254.101.133.183.262zm-3.438-4.656v1.558h.547q.406 0 .652-.234.25-.238.25-.59 0-.734-.878-.734zm3.578 4.55v-1q.305.184.606.274.304.09.574.09.328 0 .516-.09.191-.09.191-.273 0-.118-.086-.196t-.223-.137q-.132-.058-.293-.105t-.308-.105q-.238-.09-.422-.192-.18-.105-.305-.242-.12-.137-.187-.316-.063-.18-.063-.426 0-.336.145-.578.148-.243.39-.395.247-.156.56-.226.315-.075.655-.075.266 0 .54.043.273.04.538.118v.953q-.234-.137-.503-.203-.266-.07-.524-.07-.121 0-.23.023-.106.02-.188.062-.082.04-.129.106-.047.062-.047.144 0 .11.07.188t.184.136q.114.055.25.102.14.043.278.09.246.086.445.187.2.102.34.238.144.137.219.32.078.184.078.438 0 .356-.157.61-.152.25-.41.41-.254.156-.59.226-.332.075-.691.075-.66 0-1.223-.204m6.2.06q-.274.144-.825.144-1.304 0-1.304-1.356v-1.832h-.649v-.91h.649v-.863l1.23-.352v1.215h.899v.91h-.899v1.617q0 .625.496.625.196 0 .403-.113z" aria-label="Rst" style="font-weight:700;font-size:8px;line-height:1.25;font-family:&quot;Segoe UI&quot;;-inkscape-font-specification:&quot;Segoe UI Bold&quot;;letter-spacing:0;word-spacing:0;fill:#f9f9f9"/><path d="M6.607 210.022H3.248v-5.602h3.23v1.028H4.51v1.246h1.832v1.023H4.51v1.281h2.097zm4.641 0h-1.23v-2.223q0-.93-.664-.93-.32 0-.528.247-.207.246-.207.625v2.28H7.385v-4h1.234v.634h.016q.441-.73 1.285-.73 1.328 0 1.328 1.648zm4.098-5.602-2.73 6.532h-1.102l2.718-6.532zm.547 5.602v-5.602h1.984q2.984 0 2.984 2.73 0 1.31-.816 2.09-.813.782-2.168.782zm1.261-4.574v3.55h.625q.82 0 1.285-.492.47-.492.47-1.34 0-.8-.466-1.257-.46-.461-1.297-.461zm5.14-.059q-.312 0-.51-.183-.2-.188-.2-.458 0-.277.2-.453.198-.175.51-.175.317 0 .513.175.199.176.199.453 0 .282-.2.461-.195.18-.511.18m.61 4.633H21.67v-4h1.234zm.778-.106v-1q.304.184.605.274.305.09.574.09.328 0 .516-.09.191-.09.191-.274 0-.117-.086-.195t-.222-.137q-.133-.058-.293-.105t-.309-.106q-.238-.09-.422-.19-.18-.106-.304-.243-.121-.137-.188-.317-.062-.18-.062-.425 0-.336.144-.578.149-.243.39-.395.247-.156.56-.227.316-.074.656-.074.265 0 .539.043.273.04.539.117v.954q-.235-.137-.504-.204-.266-.07-.524-.07-.12 0-.23.024-.106.02-.188.062-.082.04-.128.106-.047.062-.047.144 0 .11.07.188t.184.136q.113.055.25.102.14.043.277.09.246.086.445.187.2.102.34.238.145.137.219.32.078.184.078.438 0 .356-.156.61-.153.25-.41.41-.254.156-.59.226-.332.075-.692.075-.66 0-1.222-.204" aria-label="En/Dis" style="font-weight:700;font-size:8px;line-height:1.25;font-family:&quot;Segoe UI&quot;;-inkscape-font-specification:&quot;Segoe UI Bold&quot;;letter-spacing:0;word-spacing:0;fill:#f9f9f9"/></svg>