<?xml version="1.0" encoding="UTF-8" standalone="no"?>
<!-- Created with Inkscape (http://www.inkscape.org/) -->

<svg
   width="60"
   height="380"
   viewBox="0 0 60 380.00002"
   version="1.1"
   id="svg1"
   xmlns:xlink="http://www.w3.org/1999/xlink"
   xmlns="http://www.w3.org/2000/svg"
   xmlns:svg="http://www.w3.org/2000/svg">
  <defs
     id="defs1">
    <linearGradient
       id="SVGID_16_"
       gradientUnits="userSpaceOnUse"
       x1="-602.15857"
       y1="1785.6912"
       x2="-578.78363"
       y2="1785.6912"
       gradientTransform="matrix(0,1,1,0,-1773.8412,602.39905)">
      <stop
         offset="0"
         style="stop-color:#828181"
         id="stop138" />
      <stop
         offset="1"
         style="stop-color:#575757"
         id="stop140" />
    </linearGradient>
    <linearGradient
       id="SVGID_17_"
       gradientUnits="userSpaceOnUse"
       x1="1062.069"
       y1="-4091.6899"
       x2="1084.2738"
       y2="-4091.6899"
       gradientTransform="rotate(90,-1509.3041,-2570.5358)">
      <stop
         offset="0.00559"
         style="stop-color:#FFFFFF"
         id="stop147" />
      <stop
         offset="1"
         style="stop-color:#7A7A7A"
         id="stop149" />
    </linearGradient>
    <linearGradient
       id="SVGID_18_"
       gradientUnits="userSpaceOnUse"
       x1="58.861809"
       y1="-54.6409"
       x2="58.861809"
       y2="-51.86816"
       gradientTransform="matrix(1,0,0,-1,-47.00625,-41.32658)">
      <stop
         offset="0"
         style="stop-color:#FFFBFD"
         id="stop156" />
      <stop
         offset="1"
         style="stop-color:#808080"
         id="stop158" />
    </linearGradient>
    <linearGradient
       id="SVGID_19_"
       gradientUnits="userSpaceOnUse"
       x1="-1240.7925"
       y1="-381.89734"
       x2="-1223.3157"
       y2="-381.89734"
       gradientTransform="matrix(0,-1,-1,0,-370.04718,-1220.1261)">
      <stop
         offset="0"
         style="stop-color:#B0AEAE"
         id="stop163" />
      <stop
         offset="1"
         style="stop-color:#616161"
         id="stop165" />
    </linearGradient>
    <linearGradient
       id="SVGID_20_"
       gradientUnits="userSpaceOnUse"
       x1="-1884.8636"
       y1="21.48288"
       x2="-1884.8636"
       y2="6.22048"
       gradientTransform="rotate(180,-936.50671,12.88983)">
      <stop
         offset="0"
         style="stop-color:#FFFEFE"
         id="stop174" />
      <stop
         offset="1"
         style="stop-color:#545454"
         id="stop176" />
    </linearGradient>
    <linearGradient
       id="SVGID_21_"
       gradientUnits="userSpaceOnUse"
       x1="-1884.8636"
       y1="8.3375502"
       x2="-1884.8636"
       y2="19.36582"
       gradientTransform="rotate(180,-936.50671,12.88983)">
      <stop
         offset="0"
         style="stop-color:#FFFEFE"
         id="stop191" />
      <stop
         offset="1"
         style="stop-color:#706C6C"
         id="stop193" />
    </linearGradient>
    <linearGradient
       id="linearGradient454"
       gradientUnits="userSpaceOnUse"
       x1="4.5368199"
       y1="-4120.5469"
       x2="22.556919"
       y2="-4120.5469"
       gradientTransform="rotate(90,-2279,-2101.2089)">
      <stop
         offset="0.35470942"
         style="stop-color:#ff0000;stop-opacity:1;"
         id="stop453" />
      <stop
         offset="1"
         style="stop-color:#1e1e1f;stop-opacity:1;"
         id="stop454" />
    </linearGradient>
    <linearGradient
       id="linearGradient1686"
       gradientUnits="userSpaceOnUse"
       x1="4.5368199"
       y1="-4120.5469"
       x2="22.556919"
       y2="-4120.5469"
       gradientTransform="rotate(90,-2279,-2101.2089)">
      <stop
         offset="0.35470942"
         style="stop-color:#333333;stop-opacity:1;"
         id="stop1685" />
      <stop
         offset="1"
         style="stop-color:#1e1e1f;stop-opacity:1;"
         id="stop1686" />
    </linearGradient>
    <linearGradient
       xlink:href="#linearGradient452"
       id="linearGradient185"
       gradientUnits="userSpaceOnUse"
       gradientTransform="matrix(0,0.94125307,-0.94125307,0,-4687.0198,-69.976975)"
       x1="4.5368199"
       y1="-4120.5469"
       x2="22.556919"
       y2="-4120.5469" />
    <linearGradient
       id="linearGradient452"
       gradientUnits="userSpaceOnUse"
       x1="4.5368199"
       y1="-4120.5469"
       x2="22.556919"
       y2="-4120.5469"
       gradientTransform="rotate(90,-2279,-2101.2089)">
      <stop
         offset="0.35470942"
         style="stop-color:#88aa00;stop-opacity:1;"
         id="stop451" />
      <stop
         offset="1"
         style="stop-color:#1e1e1f;stop-opacity:1;"
         id="stop452" />
    </linearGradient>
    <linearGradient
       xlink:href="#SVGID_16_"
       id="linearGradient113"
       gradientUnits="userSpaceOnUse"
       gradientTransform="matrix(0,1,1,0,-1773.8412,602.39905)"
       x1="-602.15857"
       y1="1785.6912"
       x2="-578.78363"
       y2="1785.6912" />
    <linearGradient
       xlink:href="#SVGID_17_"
       id="linearGradient114"
       gradientUnits="userSpaceOnUse"
       gradientTransform="rotate(90,-1509.3041,-2570.5358)"
       x1="1062.069"
       y1="-4091.6899"
       x2="1084.2738"
       y2="-4091.6899" />
    <linearGradient
       xlink:href="#SVGID_18_"
       id="linearGradient115"
       gradientUnits="userSpaceOnUse"
       gradientTransform="matrix(1,0,0,-1,-47.00625,-41.32658)"
       x1="58.861809"
       y1="-54.6409"
       x2="58.861809"
       y2="-51.86816" />
    <linearGradient
       xlink:href="#SVGID_19_"
       id="linearGradient116"
       gradientUnits="userSpaceOnUse"
       gradientTransform="matrix(0,-1,-1,0,-370.04718,-1220.1261)"
       x1="-1240.7925"
       y1="-381.89734"
       x2="-1223.3157"
       y2="-381.89734" />
    <linearGradient
       xlink:href="#SVGID_20_"
       id="linearGradient117"
       gradientUnits="userSpaceOnUse"
       gradientTransform="rotate(180,-936.50671,12.88983)"
       x1="-1884.8636"
       y1="21.48288"
       x2="-1884.8636"
       y2="6.22048" />
    <linearGradient
       xlink:href="#SVGID_21_"
       id="linearGradient118"
       gradientUnits="userSpaceOnUse"
       gradientTransform="rotate(180,-936.50671,12.88983)"
       x1="-1884.8636"
       y1="8.3375502"
       x2="-1884.8636"
       y2="19.36582" />
  </defs>
  <g
     id="layer1">
    <rect
       style="fill:#ececec;stroke:none;stroke-width:20.4411;stroke-linecap:round;stroke-dasharray:1.02206, 1.02206"
       id="rect1162"
       width="60"
       height="380"
       x="0"
       y="0" />
    <path
       style="font-weight:bold;font-size:5.33333px;line-height:1.25;font-family:'Segoe UI';-inkscape-font-specification:'Segoe UI Bold';letter-spacing:0px;word-spacing:0px"
       d="m 28.67448,29.353441 q 0,-0.15625 0.04427,-0.299479 0.04687,-0.145834 0.138021,-0.268229 0.09115,-0.125 0.226563,-0.221354 0.13802,-0.09896 0.322916,-0.161459 -0.283854,-0.140625 -0.440104,-0.359374 -0.15625,-0.221355 -0.15625,-0.489584 0,-0.213541 0.08854,-0.395833 0.09115,-0.182291 0.25,-0.315104 0.158854,-0.132812 0.377604,-0.205729 0.221354,-0.07552 0.48177,-0.07552 0.265625,0 0.486979,0.07552 0.221354,0.07292 0.380208,0.205729 0.161458,0.130209 0.25,0.309896 0.08854,0.179687 0.08854,0.390625 0,0.265625 -0.166667,0.484375 -0.166666,0.216145 -0.460937,0.35677 0.182291,0.0625 0.320312,0.161458 0.138021,0.09635 0.231771,0.221354 0.09375,0.125 0.140625,0.273438 0.04687,0.145833 0.04687,0.304687 0,0.239583 -0.09635,0.4375 -0.09635,0.195312 -0.273438,0.338541 -0.174479,0.140625 -0.41927,0.21875 -0.242188,0.07813 -0.536458,0.07813 -0.289063,0 -0.533854,-0.07552 -0.242187,-0.07813 -0.419271,-0.21875 -0.174479,-0.140624 -0.273437,-0.335937 -0.09896,-0.197916 -0.09896,-0.434895 z m 0.778645,-0.07031 q 0,0.127604 0.03906,0.229167 0.03906,0.101562 0.111979,0.171875 0.07292,0.07031 0.171875,0.109374 0.101562,0.03646 0.226562,0.03646 0.119791,0 0.21875,-0.03906 0.101562,-0.03906 0.174479,-0.109375 0.07292,-0.07031 0.114583,-0.171875 0.04167,-0.101562 0.04167,-0.226562 0,-0.111979 -0.03906,-0.213541 -0.03906,-0.101563 -0.111979,-0.174479 -0.07292,-0.07552 -0.174479,-0.119792 -0.09896,-0.04427 -0.223958,-0.04427 -0.117188,0 -0.21875,0.04167 -0.101562,0.03906 -0.174479,0.114583 -0.07292,0.07292 -0.114583,0.174479 -0.04167,0.101563 -0.04167,0.221354 z m 0.114583,-1.653645 q 0,0.09896 0.03385,0.1875 0.03646,0.08594 0.09635,0.151042 0.0599,0.0625 0.140624,0.09896 0.08333,0.03646 0.17448,0.03646 0.09375,0 0.174479,-0.03646 0.08073,-0.03646 0.140625,-0.101562 0.0625,-0.0651 0.09635,-0.151042 0.03646,-0.08594 0.03646,-0.184896 0,-0.101562 -0.03385,-0.1875 -0.03385,-0.08854 -0.09635,-0.151041 -0.0599,-0.0651 -0.143229,-0.101563 -0.08073,-0.03646 -0.174479,-0.03646 -0.09896,0 -0.182292,0.03906 -0.08073,0.03646 -0.140625,0.101562 -0.05729,0.0625 -0.09115,0.151042 -0.03125,0.08594 -0.03125,0.184895 z"
       id="text5328"
       aria-label="8" />
    <rect
       style="fill:#262525;fill-opacity:1;stroke:none;stroke-width:19.2302;stroke-linecap:round;stroke-dasharray:0.961507, 0.961507"
       id="rect1163"
       width="25.844769"
       height="33.409519"
       x="31.122925"
       y="32.202148" />
    <g
       id="text1170"
       style="font-size:13.3333px;line-height:1.25;letter-spacing:0px;word-spacing:0px"
       aria-label="MANTR">
      <path
         style="font-weight:bold;font-family:'Segoe UI';-inkscape-font-specification:'Segoe UI Bold'"
         d="m 16.481153,26.069275 h -2.076818 v -5.585923 q 0,-0.904946 0.07813,-1.998693 h -0.05208 q -0.16276,0.859372 -0.292968,1.236976 l -2.187494,6.34764 H 10.231169 L 8.0046121,19.786739 q -0.091146,-0.253906 -0.292968,-1.30208 h -0.058594 q 0.084635,1.380204 0.084635,2.421869 v 5.162747 H 5.8431592 v -9.335914 h 3.0794193 l 1.9075475,5.53384 q 0.227864,0.664061 0.33203,1.334632 h 0.03906 q 0.17578,-0.774737 0.371092,-1.347653 l 1.907548,-5.520819 h 3.001294 z m 10.332005,0 h -2.29166 l -0.664061,-2.076818 h -3.320304 l -0.657551,2.076818 h -2.27864 l 3.398429,-9.335914 h 2.493483 z m -3.437491,-3.691397 -1.002602,-3.138013 q -0.110676,-0.351562 -0.156249,-0.839842 h -0.05208 q -0.03255,0.410156 -0.16276,0.8138 l -1.015623,3.164055 z m 13.001269,3.691397 h -2.12239 L 30.406899,20.203404 Q 30.068358,19.689083 29.93815,19.428667 h -0.02604 q 0.05208,0.49479 0.05208,1.510413 v 5.130195 H 27.97852 v -9.335914 h 2.265619 l 3.704418,5.683579 q 0.253906,0.384114 0.468749,0.761717 h 0.02604 q -0.05208,-0.32552 -0.05208,-1.282549 v -5.162747 h 1.985672 z"
         id="path1" />
      <path
         style="font-weight:bold;font-family:'Segoe UI';-inkscape-font-specification:'Segoe UI Bold';fill:#ff0000"
         d="m 45.068322,18.445596 h -2.662754 v 7.623679 h -2.10937 v -7.623679 h -2.649733 v -1.712235 h 7.421857 z m 9.088519,7.623679 h -2.415358 l -1.45182,-2.402338 q -0.16276,-0.273437 -0.312499,-0.48828 -0.149739,-0.214843 -0.305989,-0.364582 -0.149739,-0.15625 -0.319009,-0.234375 -0.16276,-0.08463 -0.358072,-0.08463 h -0.566405 v 3.57421 H 46.32483 v -9.335914 h 3.333324 q 3.398429,0 3.398429,2.539056 0,0.48828 -0.149739,0.904946 -0.149739,0.410155 -0.423176,0.742185 -0.273437,0.332031 -0.664061,0.572916 -0.384113,0.240884 -0.859372,0.377603 v 0.02604 q 0.208332,0.0651 0.403644,0.214844 0.195312,0.143228 0.377604,0.33854 0.182291,0.195312 0.345051,0.423176 0.16927,0.221354 0.305989,0.436197 z m -5.729152,-7.760397 v 2.59765 h 0.911456 q 0.677082,0 1.087237,-0.390624 0.416665,-0.397135 0.416665,-0.983071 0,-1.223955 -1.46484,-1.223955 z"
         id="path2" />
    </g>
    <g
       id="g1188"
       transform="translate(32.19526,75.75133)">
      <g
         id="g1175">
        <linearGradient
           id="linearGradient1175"
           gradientUnits="userSpaceOnUse"
           x1="-602.15857"
           y1="1785.6912"
           x2="-578.78363"
           y2="1785.6912"
           gradientTransform="matrix(0,1,1,0,-1773.8412,602.39905)">
          <stop
             offset="0"
             style="stop-color:#828181"
             id="stop1174" />
          <stop
             offset="1"
             style="stop-color:#575757"
             id="stop1175" />
        </linearGradient>
        <path
           fill="url(#SVGID_16_)"
           d="m 11.85025,23.61541 c -6.44467,0 -11.68796,-5.24279 -11.68796,-11.68697 0,-6.44517 5.24329,-11.68796 11.68796,-11.68796 6.44467,0 11.68747,5.24279 11.68747,11.68797 0,6.44417 -5.24279,11.68696 -11.68747,11.68696 z"
           id="path1175"
           style="fill:url(#linearGradient113)" />
      </g>
      <linearGradient
         id="linearGradient1177"
         gradientUnits="userSpaceOnUse"
         x1="1062.069"
         y1="-4091.6899"
         x2="1084.2738"
         y2="-4091.6899"
         gradientTransform="rotate(90,-1509.3041,-2570.5358)">
        <stop
           offset="0.00559"
           style="stop-color:#FFFFFF"
           id="stop1176" />
        <stop
           offset="1"
           style="stop-color:#7A7A7A"
           id="stop1177" />
      </linearGradient>
      <circle
         fill="url(#SVGID_17_)"
         cx="11.85"
         cy="11.93965"
         r="11.10243"
         id="circle1177"
         style="fill:url(#linearGradient114)" />
      <circle
         fill="#e0e0e0"
         cx="11.85"
         cy="11.93965"
         r="10.44346"
         id="circle1178" />
      <linearGradient
         id="linearGradient1179"
         gradientUnits="userSpaceOnUse"
         x1="58.861809"
         y1="-54.6409"
         x2="58.861809"
         y2="-51.86816"
         gradientTransform="matrix(1,0,0,-1,-47.00625,-41.32658)">
        <stop
           offset="0"
           style="stop-color:#FFFBFD"
           id="stop1178" />
        <stop
           offset="1"
           style="stop-color:#808080"
           id="stop1179" />
      </linearGradient>
      <path
         fill="url(#SVGID_18_)"
         d="M 1.52136,10.54158 1.09168,10.95843 C 0.65175,11.5374 0.6549,12.3395 1.09936,12.915 l 0.39828,0.36948 20.70001,0.02984 0.40244,-0.38429 c 0.45989,-0.57286 0.46323,-1.38741 0.008,-1.96402 L 22.19765,10.565 Z"
         id="path1179"
         style="fill:url(#linearGradient115)" />
      <linearGradient
         id="linearGradient1181"
         gradientUnits="userSpaceOnUse"
         x1="-1240.7925"
         y1="-381.89734"
         x2="-1223.3157"
         y2="-381.89734"
         gradientTransform="matrix(0,-1,-1,0,-370.04718,-1220.1261)">
        <stop
           offset="0"
           style="stop-color:#B0AEAE"
           id="stop1180" />
        <stop
           offset="1"
           style="stop-color:#616161"
           id="stop1181" />
      </linearGradient>
      <circle
         fill="url(#SVGID_19_)"
         cx="11.85015"
         cy="11.92791"
         r="8.73843"
         id="circle1181"
         style="fill:url(#linearGradient116)" />
      <circle
         fill="#1f1f1f"
         cx="11.85015"
         cy="11.92791"
         r="8.1665602"
         id="circle1182" />
      <path
         opacity="0.28"
         fill="#404040"
         d="m 11.85015,4.29678 c 4.21318,0 7.62864,3.78218 7.62864,8.44773 0,4.66555 -3.41546,9.28764 -7.62864,9.28764 -4.21318,0 -7.62864,-4.62209 -7.62864,-9.28764 0,-4.66555 3.41546,-8.44773 7.62864,-8.44773 z"
         id="path1182" />
      <linearGradient
         id="linearGradient1183"
         gradientUnits="userSpaceOnUse"
         x1="-1884.8636"
         y1="21.48288"
         x2="-1884.8636"
         y2="6.22048"
         gradientTransform="rotate(180,-936.50671,12.88983)">
        <stop
           offset="0"
           style="stop-color:#FFFEFE"
           id="stop1182" />
        <stop
           offset="1"
           style="stop-color:#545454"
           id="stop1183" />
      </linearGradient>
      <circle
         fill="url(#SVGID_20_)"
         cx="11.85015"
         cy="11.92798"
         r="7.6311998"
         id="circle1183"
         style="fill:url(#linearGradient117)" />
      <circle
         fill="#e0e0e0"
         cx="11.85015"
         cy="11.92798"
         r="6.7999601"
         id="circle1184" />
      <g
         opacity="0.43"
         id="g1186">
        <path
           fill="#404040"
           d="m 11.85016,4.74578 c 4.17474,0 7.56128,3.25714 7.62286,7.29614 5.5e-4,-0.03833 0.0057,-0.0755 0.0057,-0.11395 0,-4.2146 -3.41541,-7.63116 -7.6286,-7.63116 -4.21319,0 -7.62866,3.41656 -7.62866,7.63116 0,0.03845 0.00519,0.07562 0.00574,0.11395 0.06158,-4.039 3.44818,-7.29614 7.62292,-7.29614 z"
           id="path1184" />
        <path
           opacity="0.28"
           fill="#404040"
           d="m 4.22723,12.04192 c -5.5e-4,0.03723 -0.00574,0.07324 -0.00574,0.1106 0,4.09058 3.41547,7.40668 7.62866,7.40668 -4.17473,-10e-6 -7.56133,-3.35578 -7.62292,-7.51728 z"
           id="path1185" />
        <path
           opacity="0.28"
           fill="#404040"
           d="m 11.85016,19.55919 c 4.2132,0 7.6286,-3.3161 7.6286,-7.40668 0,-0.03735 -0.0052,-0.07336 -0.0057,-0.1106 -0.06158,4.16151 -3.44812,7.51728 -7.62286,7.51728 z"
           id="path1186" />
      </g>
      <linearGradient
         id="linearGradient1187"
         gradientUnits="userSpaceOnUse"
         x1="-1884.8636"
         y1="8.3375502"
         x2="-1884.8636"
         y2="19.36582"
         gradientTransform="rotate(180,-936.50671,12.88983)">
        <stop
           offset="0"
           style="stop-color:#FFFEFE"
           id="stop1186" />
        <stop
           offset="1"
           style="stop-color:#706C6C"
           id="stop1187" />
      </linearGradient>
      <circle
         fill="url(#SVGID_21_)"
         cx="11.85015"
         cy="11.92798"
         r="5.5141301"
         id="circle1187"
         style="fill:url(#linearGradient118)" />
      <circle
         cx="11.85015"
         cy="11.92791"
         r="4.8673301"
         id="circle1188" />
    </g>
    <rect
       style="fill:#262525;fill-opacity:1;stroke:none;stroke-width:55.5223;stroke-linecap:round;stroke-dasharray:2.77611, 2.77611"
       id="rect1188"
       width="25.844769"
       height="278.51041"
       x="31.122925"
       y="67.734283" />
    <path
       style="font-weight:bold;font-size:8px;line-height:1.25;font-family:'Segoe UI';-inkscape-font-specification:'Segoe UI Bold';letter-spacing:0px;word-spacing:0px"
       d="m 16.030863,40.057251 h -1.375 l -0.398438,-1.246094 h -1.992187 l -0.394531,1.246094 h -1.367188 l 2.039063,-5.601563 h 1.496093 z m -2.0625,-2.214844 -0.601563,-1.882812 q -0.06641,-0.210938 -0.09375,-0.503907 H 13.2418 q -0.01953,0.246094 -0.09766,0.488282 l -0.609375,1.898437 z m 3.875,2.214844 h -1.234375 v -5.921875 h 1.234375 z m 2.273437,0 H 18.882425 V 34.135376 H 20.1168 Z"
       id="text1449"
       aria-label="All" />
    <path
       style="font-weight:bold;font-size:8px;line-height:1.25;font-family:'Segoe UI';-inkscape-font-specification:'Segoe UI Bold';letter-spacing:0px;word-spacing:0px;fill:#f9f9f9"
       d="m 35.943748,37.924438 v 1.929688 H 34.68203 v -5.601563 h 1.976562 q 2.117188,0 2.117188,1.785157 0,0.84375 -0.609375,1.367187 -0.605469,0.519531 -1.621094,0.519531 z m 0,-2.703125 v 1.746094 h 0.496094 q 1.007813,0 1.007813,-0.882812 0,-0.863282 -1.007813,-0.863282 z m 6.019532,4.730469 q -1.203125,0 -1.960938,-0.78125 -0.757812,-0.785156 -0.757812,-2.042969 0,-1.328125 0.769531,-2.148437 0.769531,-0.820313 2.039062,-0.820313 1.199219,0 1.9375,0.785157 0.742188,0.785156 0.742188,2.070312 0,1.320313 -0.769531,2.128906 -0.765625,0.808594 -2,0.808594 z m 0.05469,-4.707031 q -0.664062,0 -1.054687,0.5 -0.390625,0.496094 -0.390625,1.316406 0,0.832031 0.390625,1.316406 0.390625,0.484375 1.023437,0.484375 0.652344,0 1.035156,-0.46875 0.382813,-0.472656 0.382813,-1.308593 0,-0.871094 -0.371094,-1.355469 -0.371094,-0.484375 -1.015625,-0.484375 z m 6.980469,4.609375 h -3.335938 v -5.601563 h 1.261719 v 4.578125 h 2.074219 z m 4.410156,-5.601563 -1.824219,3.609375 v 1.992188 h -1.261718 v -1.96875 l -1.777344,-3.632813 h 1.441406 l 0.902344,2.089844 q 0.02344,0.05859 0.128906,0.457031 h 0.01563 q 0.05078,-0.28125 0.121094,-0.441406 l 0.917969,-2.105469 z"
       id="text1551"
       aria-label="POLY" />
    <path
       style="font-weight:bold;font-size:8px;line-height:1.25;font-family:'Segoe UI';-inkscape-font-specification:'Segoe UI Bold';letter-spacing:0px;word-spacing:0px;fill:#f9f9f9"
       d="m 45.256248,69.522308 v 5.726563 H 44.02578 v -4.335938 q -0.101563,0.08984 -0.242188,0.171875 -0.136719,0.07813 -0.292969,0.144532 -0.15625,0.0625 -0.324218,0.109375 -0.167969,0.04297 -0.332032,0.0625 v -1.039063 q 0.480469,-0.140625 0.90625,-0.359375 0.425782,-0.21875 0.769532,-0.480469 z"
       id="text709"
       aria-label="1" />
    <path
       style="font-weight:bold;font-size:8px;line-height:1.25;font-family:'Segoe UI';-inkscape-font-specification:'Segoe UI Bold';letter-spacing:0px;word-spacing:0px;fill:#f9f9f9"
       d="m 43.529686,108.85043 h 2.375 v 1.02344 H 42.178123 V 109.452 q 0,-0.42969 0.144532,-0.76954 0.144531,-0.34375 0.363281,-0.61328 0.21875,-0.27343 0.476562,-0.48047 0.261719,-0.21093 0.496094,-0.3789 0.246094,-0.17578 0.429688,-0.33594 0.1875,-0.16016 0.3125,-0.31641 0.128906,-0.16015 0.191406,-0.32031 0.0625,-0.16406 0.0625,-0.34765 0,-0.35938 -0.203125,-0.54297 -0.203125,-0.1836 -0.621094,-0.1836 -0.722656,0 -1.382812,0.57422 v -1.08594 q 0.730468,-0.47265 1.648437,-0.47265 0.425781,0 0.761719,0.11328 0.339844,0.10937 0.574219,0.31641 0.234375,0.20703 0.355468,0.5039 0.125,0.29297 0.125,0.65625 0,0.38672 -0.121093,0.6875 -0.117188,0.30078 -0.316407,0.54688 -0.195312,0.24609 -0.453125,0.45312 -0.257812,0.20313 -0.535156,0.39453 -0.1875,0.13282 -0.363281,0.26563 -0.171875,0.1289 -0.304688,0.25781 -0.132812,0.125 -0.210937,0.24609 -0.07813,0.1211 -0.07813,0.23047 z"
       id="text710"
       aria-label="2" />
    <path
       style="font-weight:bold;font-size:8px;line-height:1.25;font-family:'Segoe UI';-inkscape-font-specification:'Segoe UI Bold';letter-spacing:0px;word-spacing:0px;fill:#f9f9f9"
       d="m 42.260155,144.16174 v -1.07422 q 0.5625,0.41016 1.3125,0.41016 0.472656,0 0.734375,-0.20312 0.265625,-0.20313 0.265625,-0.56641 0,-0.375 -0.328125,-0.57813 -0.324219,-0.20312 -0.894532,-0.20312 h -0.519531 v -0.94531 h 0.480469 q 1.09375,0 1.09375,-0.72657 0,-0.68359 -0.839844,-0.68359 -0.5625,0 -1.09375,0.36328 v -1.00781 q 0.589844,-0.29688 1.375,-0.29688 0.859375,0 1.335938,0.38672 0.480468,0.38672 0.480468,1.00391 0,1.09766 -1.113281,1.375 v 0.0195 q 0.59375,0.0742 0.9375,0.43359 0.34375,0.35547 0.34375,0.875 0,0.78516 -0.574219,1.24219 -0.574218,0.45703 -1.585937,0.45703 -0.867188,0 -1.410156,-0.28125 z"
       id="text711"
       aria-label="3" />
    <path
       style="font-weight:bold;font-size:8px;line-height:1.25;font-family:'Segoe UI';-inkscape-font-specification:'Segoe UI Bold';letter-spacing:0px;word-spacing:0px;fill:#f9f9f9"
       d="m 45.492577,172.86166 v 3.53125 h 0.671875 v 0.92188 h -0.671875 v 1.14844 h -1.125 v -1.14844 H 41.92617 v -0.96484 q 0.324219,-0.36329 0.671875,-0.79297 0.347657,-0.4336 0.671875,-0.89063 0.324219,-0.45703 0.601563,-0.91797 0.28125,-0.46484 0.476562,-0.88672 z m -2.460938,3.53125 h 1.335938 v -1.95703 q -0.136719,0.25391 -0.296875,0.51563 -0.160157,0.25781 -0.335938,0.51172 -0.175781,0.25 -0.355469,0.48828 -0.179687,0.23437 -0.347656,0.4414 z"
       id="text712"
       aria-label="4" />
    <path
       style="font-weight:bold;font-size:8px;line-height:1.25;font-family:'Segoe UI';-inkscape-font-specification:'Segoe UI Bold';letter-spacing:0px;word-spacing:0px;fill:#f9f9f9"
       d="m 42.285545,214.02759 v -1.05469 q 0.574219,0.35156 1.222657,0.35156 0.488281,0 0.761718,-0.23047 0.277344,-0.23437 0.277344,-0.63281 0,-0.83203 -1.175781,-0.83203 -0.433594,0 -1,0.0664 l 0.210937,-3.125 h 2.964844 v 1.00781 h -2.023437 l -0.07813,1.12109 q 0.300781,-0.0234 0.519531,-0.0234 0.863281,0 1.351562,0.45312 0.488282,0.45313 0.488282,1.21875 0,0.84766 -0.582032,1.38672 -0.582031,0.53516 -1.578125,0.53516 -0.808593,0 -1.359375,-0.24219 z"
       id="text713"
       aria-label="5" />
    <path
       style="font-weight:bold;font-size:8px;line-height:1.25;font-family:'Segoe UI';-inkscape-font-specification:'Segoe UI Bold';letter-spacing:0px;word-spacing:0px;fill:#f9f9f9"
       d="m 46.017967,246.95709 q 0,0.41406 -0.144531,0.77344 -0.144531,0.35937 -0.402344,0.625 -0.257812,0.26172 -0.613281,0.41406 -0.355469,0.14844 -0.777344,0.14844 -0.472656,0 -0.847656,-0.17578 -0.371094,-0.17578 -0.628906,-0.50781 -0.257813,-0.33594 -0.394532,-0.82032 -0.136718,-0.48437 -0.136718,-1.09765 0,-0.72266 0.175781,-1.3086 0.179687,-0.58984 0.507812,-1.00781 0.332032,-0.41797 0.800782,-0.64453 0.46875,-0.23047 1.054687,-0.23047 0.648438,0 1.007813,0.15234 v 1.03125 q -0.425782,-0.24218 -0.929688,-0.24218 -0.3125,0 -0.566406,0.12109 -0.253906,0.12109 -0.4375,0.34375 -0.179688,0.22266 -0.285156,0.53906 -0.101563,0.3125 -0.109375,0.69922 h 0.02344 q 0.398438,-0.55078 1.175781,-0.55078 0.347657,0 0.628907,0.125 0.28125,0.125 0.480468,0.35547 0.199219,0.22656 0.308594,0.54687 0.109375,0.32032 0.109375,0.71094 z m -1.207031,0.0781 q 0,-0.90235 -0.738281,-0.90235 -0.167969,0 -0.304688,0.0625 -0.136719,0.0625 -0.234375,0.17578 -0.09766,0.11329 -0.152344,0.26954 -0.05078,0.15234 -0.05078,0.33984 0,0.20703 0.05469,0.38672 0.05469,0.17969 0.152343,0.3164 0.101563,0.13282 0.238282,0.21094 0.136718,0.0781 0.304687,0.0781 0.167969,0 0.300781,-0.0664 0.136719,-0.0703 0.230469,-0.19141 0.09766,-0.125 0.148438,-0.29687 0.05078,-0.17578 0.05078,-0.38281 z"
       id="text714"
       aria-label="6" />
    <path
       style="font-weight:bold;font-size:8px;line-height:1.25;font-family:'Segoe UI';-inkscape-font-specification:'Segoe UI Bold';letter-spacing:0px;word-spacing:0px;fill:#f9f9f9"
       d="m 45.99453,279.46185 q -0.375,0.67578 -0.671875,1.26953 -0.296875,0.58985 -0.523438,1.16797 -0.226562,0.57422 -0.386719,1.17188 -0.160156,0.59375 -0.261718,1.28125 h -1.289063 q 0.109375,-0.65235 0.289063,-1.25781 0.179687,-0.60547 0.414062,-1.17188 0.238281,-0.57031 0.523438,-1.10937 0.289062,-0.53907 0.609375,-1.05469 h -2.601563 v -1.00781 h 3.898438 z"
       id="text715"
       aria-label="7" />
    <path
       style="font-weight:bold;font-size:8px;line-height:1.25;font-family:'Segoe UI';-inkscape-font-specification:'Segoe UI Bold';letter-spacing:0px;word-spacing:0px;fill:#f9f9f9"
       d="m 42.05703,319.17834 q 0,-0.23437 0.06641,-0.44921 0.07031,-0.21875 0.207031,-0.40235 0.136719,-0.1875 0.339844,-0.33203 0.207031,-0.14844 0.484375,-0.24219 -0.425781,-0.21093 -0.660156,-0.53906 -0.234375,-0.33203 -0.234375,-0.73437 0,-0.32032 0.132812,-0.59375 0.136719,-0.27344 0.375,-0.47266 0.238281,-0.19922 0.566406,-0.30859 0.332032,-0.11329 0.722657,-0.11329 0.398437,0 0.730468,0.11329 0.332032,0.10937 0.570313,0.30859 0.242187,0.19531 0.375,0.46484 0.132812,0.26953 0.132812,0.58594 0,0.39844 -0.25,0.72656 -0.25,0.32422 -0.691406,0.53516 0.273438,0.0937 0.480469,0.24219 0.207031,0.14453 0.347656,0.33203 0.140625,0.1875 0.210938,0.41015 0.07031,0.21875 0.07031,0.45704 0,0.35937 -0.144531,0.65625 -0.144531,0.29296 -0.410156,0.50781 -0.261719,0.21094 -0.628907,0.32812 -0.363281,0.11719 -0.804687,0.11719 -0.433594,0 -0.800781,-0.11328 -0.363282,-0.11719 -0.628907,-0.32813 -0.261718,-0.21093 -0.410156,-0.5039 -0.148437,-0.29688 -0.148437,-0.65235 z m 1.167968,-0.10546 q 0,0.1914 0.05859,0.34375 0.05859,0.15234 0.167969,0.25781 0.109375,0.10547 0.257812,0.16406 0.152344,0.0547 0.339844,0.0547 0.179688,0 0.328125,-0.0586 0.152344,-0.0586 0.261719,-0.16406 0.109375,-0.10547 0.171875,-0.25781 0.0625,-0.15234 0.0625,-0.33984 0,-0.16797 -0.05859,-0.32032 -0.05859,-0.15234 -0.167969,-0.26172 -0.109375,-0.11328 -0.261718,-0.17968 -0.148438,-0.0664 -0.335938,-0.0664 -0.175781,0 -0.328125,0.0625 -0.152344,0.0586 -0.261719,0.17188 -0.109375,0.10937 -0.171875,0.26171 -0.0625,0.15235 -0.0625,0.33204 z m 0.171875,-2.48047 q 0,0.14843 0.05078,0.28125 0.05469,0.1289 0.144531,0.22656 0.08984,0.0937 0.210937,0.14844 0.125,0.0547 0.261719,0.0547 0.140625,0 0.261719,-0.0547 0.121094,-0.0547 0.210937,-0.15235 0.09375,-0.0977 0.144532,-0.22656 0.05469,-0.12891 0.05469,-0.27734 0,-0.15235 -0.05078,-0.28125 -0.05078,-0.13282 -0.144531,-0.22657 -0.08984,-0.0976 -0.214844,-0.15234 -0.121094,-0.0547 -0.261719,-0.0547 -0.148437,0 -0.273437,0.0586 -0.121094,0.0547 -0.210938,0.15234 -0.08594,0.0937 -0.136719,0.22656 -0.04687,0.12891 -0.04687,0.27735 z"
       id="text716"
       aria-label="8" />
    <path
       style="font-weight:bold;font-size:8px;line-height:1.25;font-family:'Segoe UI';-inkscape-font-specification:'Segoe UI Bold';letter-spacing:0px;word-spacing:0px"
       d="m 16.521097,69.522308 v 5.726563 h -1.230469 v -4.335938 q -0.101562,0.08984 -0.242187,0.171875 -0.136719,0.07813 -0.292969,0.144532 -0.15625,0.0625 -0.324219,0.109375 -0.167968,0.04297 -0.332031,0.0625 v -1.039063 q 0.480469,-0.140625 0.90625,-0.359375 0.425781,-0.21875 0.769531,-0.480469 z"
       id="text838"
       aria-label="1" />
    <path
       style="font-weight:bold;font-size:8px;line-height:1.25;font-family:'Segoe UI';-inkscape-font-specification:'Segoe UI Bold';letter-spacing:0px;word-spacing:0px"
       d="m 14.794535,109.24899 h 2.375 v 1.02344 h -3.726563 v -0.42187 q 0,-0.42969 0.144531,-0.76954 0.144532,-0.34375 0.363282,-0.61328 0.21875,-0.27343 0.476562,-0.48047 0.261719,-0.21093 0.496094,-0.3789 0.246094,-0.17578 0.429687,-0.33594 0.1875,-0.16016 0.3125,-0.31641 0.128907,-0.16015 0.191407,-0.32031 0.0625,-0.16406 0.0625,-0.34765 0,-0.35938 -0.203125,-0.54297 -0.203125,-0.1836 -0.621094,-0.1836 -0.722656,0 -1.382813,0.57422 v -1.08594 q 0.730469,-0.47265 1.648438,-0.47265 0.425781,0 0.761719,0.11328 0.339843,0.10937 0.574218,0.31641 0.234375,0.20703 0.355469,0.5039 0.125,0.29297 0.125,0.65625 0,0.38672 -0.121094,0.6875 -0.117187,0.30078 -0.316406,0.54688 -0.195312,0.24609 -0.453125,0.45312 -0.257812,0.20313 -0.535156,0.39453 -0.1875,0.13282 -0.363281,0.26563 -0.171875,0.1289 -0.304688,0.25781 -0.132812,0.125 -0.210937,0.24609 -0.07813,0.1211 -0.07813,0.23047 z"
       id="text839"
       aria-label="2" />
    <path
       style="font-weight:bold;font-size:8px;line-height:1.25;font-family:'Segoe UI';-inkscape-font-specification:'Segoe UI Bold';letter-spacing:0px;word-spacing:0px"
       d="m 13.525003,145.11237 v -1.07422 q 0.5625,0.41015 1.3125,0.41015 0.472657,0 0.734375,-0.20312 0.265625,-0.20313 0.265625,-0.56641 0,-0.375 -0.328125,-0.57812 -0.324218,-0.20313 -0.894531,-0.20313 h -0.519531 v -0.94531 h 0.480469 q 1.09375,0 1.09375,-0.72656 0,-0.6836 -0.839844,-0.6836 -0.5625,0 -1.09375,0.36328 v -1.00781 q 0.589844,-0.29687 1.375,-0.29687 0.859375,0 1.335937,0.38672 0.480469,0.38671 0.480469,1.0039 0,1.09766 -1.113281,1.375 v 0.0195 q 0.59375,0.0742 0.9375,0.4336 0.34375,0.35547 0.34375,0.875 0,0.78515 -0.574219,1.24218 -0.574219,0.45704 -1.585937,0.45704 -0.867188,0 -1.410157,-0.28125 z"
       id="text840"
       aria-label="3" />
    <path
       style="font-weight:bold;font-size:8px;line-height:1.25;font-family:'Segoe UI';-inkscape-font-specification:'Segoe UI Bold';letter-spacing:0px;word-spacing:0px"
       d="m 16.757425,174.71796 v 3.53125 H 17.4293 v 0.92187 h -0.671875 v 1.14844 h -1.125 v -1.14844 h -2.441406 v -0.96484 q 0.324219,-0.36328 0.671875,-0.79297 0.347656,-0.43359 0.671875,-0.89063 0.324219,-0.45703 0.601563,-0.91796 0.28125,-0.46485 0.476562,-0.88672 z m -2.460937,3.53125 h 1.335937 v -1.95703 q -0.136718,0.2539 -0.296875,0.51562 -0.160156,0.25781 -0.335937,0.51172 -0.175781,0.25 -0.355469,0.48828 -0.179687,0.23438 -0.347656,0.44141 z"
       id="text841"
       aria-label="4" />
    <path
       style="font-weight:bold;font-size:8px;line-height:1.25;font-family:'Segoe UI';-inkscape-font-specification:'Segoe UI Bold';letter-spacing:0px;word-spacing:0px"
       d="m 13.550394,215.19855 v -1.05469 q 0.574219,0.35156 1.222656,0.35156 0.488282,0 0.761719,-0.23047 0.277344,-0.23437 0.277344,-0.63281 0,-0.83203 -1.175781,-0.83203 -0.433594,0 -1,0.0664 l 0.210937,-3.125 h 2.964844 v 1.00781 h -2.023438 l -0.07813,1.12109 q 0.300782,-0.0234 0.519532,-0.0234 0.863281,0 1.351562,0.45313 0.488281,0.45312 0.488281,1.21875 0,0.84766 -0.582031,1.38672 -0.582031,0.53515 -1.578125,0.53515 -0.808594,0 -1.359375,-0.24218 z"
       id="text842"
       aria-label="5" />
    <path
       style="font-weight:bold;font-size:8px;line-height:1.25;font-family:'Segoe UI';-inkscape-font-specification:'Segoe UI Bold';letter-spacing:0px;word-spacing:0px"
       d="m 17.282816,248.50336 q 0,0.41406 -0.144531,0.77343 -0.144532,0.35938 -0.402344,0.625 -0.257813,0.26172 -0.613281,0.41407 -0.355469,0.14843 -0.777344,0.14843 -0.472656,0 -0.847656,-0.17578 -0.371094,-0.17578 -0.628907,-0.50781 -0.257812,-0.33594 -0.394531,-0.82031 -0.136719,-0.48438 -0.136719,-1.09766 0,-0.72265 0.175782,-1.30859 0.179687,-0.58985 0.507812,-1.00781 0.332031,-0.41797 0.800781,-0.64454 0.46875,-0.23046 1.054688,-0.23046 0.648437,0 1.007812,0.15234 v 1.03125 q -0.425781,-0.24219 -0.929687,-0.24219 -0.3125,0 -0.566406,0.1211 -0.253907,0.12109 -0.4375,0.34375 -0.179688,0.22265 -0.285157,0.53906 -0.101562,0.3125 -0.109375,0.69922 h 0.02344 q 0.398437,-0.55078 1.175781,-0.55078 0.347656,0 0.628906,0.125 0.28125,0.125 0.480469,0.35546 0.199219,0.22657 0.308594,0.54688 0.109375,0.32031 0.109375,0.71094 z m -1.207031,0.0781 q 0,-0.90234 -0.738282,-0.90234 -0.167968,0 -0.304687,0.0625 -0.136719,0.0625 -0.234375,0.17578 -0.09766,0.11328 -0.152344,0.26953 -0.05078,0.15234 -0.05078,0.33984 0,0.20704 0.05469,0.38672 0.05469,0.17969 0.152344,0.31641 0.101563,0.13281 0.238281,0.21094 0.136719,0.0781 0.304688,0.0781 0.167969,0 0.300781,-0.0664 0.136719,-0.0703 0.230469,-0.19141 0.09766,-0.125 0.148437,-0.29688 0.05078,-0.17578 0.05078,-0.38281 z"
       id="text843"
       aria-label="6" />
    <path
       style="font-weight:bold;font-size:8px;line-height:1.25;font-family:'Segoe UI';-inkscape-font-specification:'Segoe UI Bold';letter-spacing:0px;word-spacing:0px"
       d="m 17.259378,280.49951 q -0.375,0.67578 -0.671875,1.26953 -0.296875,0.58985 -0.523437,1.16797 -0.226563,0.57422 -0.386719,1.17188 -0.160156,0.59375 -0.261719,1.28125 h -1.289062 q 0.109375,-0.65235 0.289062,-1.25782 0.179688,-0.60546 0.414063,-1.17187 0.238281,-0.57031 0.523437,-1.10938 0.289063,-0.53906 0.609375,-1.05468 h -2.601562 v -1.00782 h 3.898437 z"
       id="text844"
       aria-label="7" />
    <path
       style="font-weight:bold;font-size:8px;line-height:1.25;font-family:'Segoe UI';-inkscape-font-specification:'Segoe UI Bold';letter-spacing:0px;word-spacing:0px"
       d="m 13.321878,318.90588 q 0,-0.23437 0.06641,-0.44921 0.07031,-0.21875 0.207031,-0.40235 0.136719,-0.1875 0.339844,-0.33203 0.207031,-0.14844 0.484375,-0.24219 -0.425782,-0.21093 -0.660157,-0.53906 -0.234375,-0.33203 -0.234375,-0.73437 0,-0.32032 0.132813,-0.59375 0.136719,-0.27344 0.375,-0.47266 0.238281,-0.19922 0.566406,-0.30859 0.332031,-0.11329 0.722656,-0.11329 0.398438,0 0.730469,0.11329 0.332031,0.10937 0.570313,0.30859 0.242187,0.19531 0.375,0.46484 0.132812,0.26953 0.132812,0.58594 0,0.39844 -0.25,0.72656 -0.25,0.32422 -0.691406,0.53516 0.273437,0.0937 0.480469,0.24219 0.207031,0.14453 0.347656,0.33203 0.140625,0.1875 0.210937,0.41015 0.07031,0.21875 0.07031,0.45704 0,0.35937 -0.144531,0.65625 -0.144532,0.29296 -0.410157,0.50781 -0.261718,0.21094 -0.628906,0.32812 -0.363281,0.11719 -0.804687,0.11719 -0.433594,0 -0.800782,-0.11328 -0.363281,-0.11719 -0.628906,-0.32813 -0.261719,-0.21093 -0.410156,-0.5039 -0.148438,-0.29688 -0.148438,-0.65235 z m 1.167969,-0.10546 q 0,0.1914 0.05859,0.34375 0.05859,0.15234 0.167969,0.25781 0.109375,0.10547 0.257812,0.16406 0.152344,0.0547 0.339844,0.0547 0.179687,0 0.328125,-0.0586 0.152344,-0.0586 0.261719,-0.16406 0.109375,-0.10547 0.171875,-0.25781 0.0625,-0.15234 0.0625,-0.33984 0,-0.16797 -0.05859,-0.32032 -0.05859,-0.15234 -0.167969,-0.26172 -0.109375,-0.11328 -0.261719,-0.17968 -0.148437,-0.0664 -0.335937,-0.0664 -0.175781,0 -0.328125,0.0625 -0.152344,0.0586 -0.261719,0.17188 -0.109375,0.10937 -0.171875,0.26171 -0.0625,0.15235 -0.0625,0.33204 z m 0.171875,-2.48047 q 0,0.14843 0.05078,0.28125 0.05469,0.1289 0.144532,0.22656 0.08984,0.0937 0.210937,0.14844 0.125,0.0547 0.261719,0.0547 0.140625,0 0.261719,-0.0547 0.121093,-0.0547 0.210937,-0.15235 0.09375,-0.0976 0.144531,-0.22656 0.05469,-0.12891 0.05469,-0.27734 0,-0.15235 -0.05078,-0.28125 -0.05078,-0.13282 -0.144532,-0.22657 -0.08984,-0.0977 -0.214843,-0.15234 -0.121094,-0.0547 -0.261719,-0.0547 -0.148438,0 -0.273438,0.0586 -0.121093,0.0547 -0.210937,0.15234 -0.08594,0.0937 -0.136719,0.22656 -0.04687,0.12891 -0.04687,0.27735 z"
       id="text846"
       aria-label="8" />
  </g>
  <g
     id="layer2"
     style="display:none">
    <ellipse
       style="fill:none;stroke:#ff0000;stroke-width:1;stroke-linecap:round;stroke-dasharray:0.0499998, 0.0499998;stroke-dashoffset:0;stroke-opacity:1"
       id="ellipse59"
       cx="44.045143"
       cy="52.605804"
       rx="11.28971"
       ry="11.289873" />
    <path
       style="fill:none;stroke:#ff0000;stroke-width:1px;stroke-linecap:butt;stroke-linejoin:miter;stroke-opacity:1"
       d="m 41.10779,52.6058 h 5.875"
       id="path59" />
    <path
       style="fill:none;stroke:#ff0000;stroke-width:1px;stroke-linecap:butt;stroke-linejoin:miter;stroke-opacity:1"
       d="m 44.04529,49.6683 v 5.875"
       id="path60" />
    <ellipse
       style="fill:none;stroke:#ff0000;stroke-width:0.760098;stroke-linecap:round;stroke-dasharray:0.0380047, 0.0380047;stroke-dashoffset:0;stroke-opacity:1"
       id="ellipse63"
       cx="44.045177"
       cy="52.605804"
       rx="8.5812826"
       ry="8.5814066" />
    <ellipse
       style="fill:none;stroke:#ff0000;stroke-width:0.550183;stroke-linecap:round;stroke-dasharray:0.027509, 0.027509;stroke-dashoffset:0;stroke-opacity:1"
       id="ellipse64"
       cx="44.045208"
       cy="52.605804"
       rx="6.2114086"
       ry="6.2114987" />
    <ellipse
       style="fill:none;stroke:#0000ff;stroke-width:1;stroke-linecap:round;stroke-dasharray:1, 2;stroke-dashoffset:0;stroke-opacity:1"
       id="ellipse882"
       cx="15.305943"
       cy="52.620247"
       rx="10.951986"
       ry="10.951961" />
    <path
       style="fill:none;stroke:#0000ff;stroke-width:1px;stroke-linecap:butt;stroke-linejoin:miter;stroke-opacity:1"
       d="m 12.36845,52.62024 h 5.875"
       id="path882" />
    <path
       style="fill:none;stroke:#0000ff;stroke-width:1px;stroke-linecap:butt;stroke-linejoin:miter;stroke-opacity:1"
       d="m 15.30595,49.68274 v 5.875"
       id="path883" />
    <ellipse
       style="fill:none;stroke:#ff0000;stroke-width:1;stroke-linecap:round;stroke-dasharray:0.0499998, 0.0499998;stroke-dashoffset:0;stroke-opacity:1"
       id="ellipse200"
       cx="44.045143"
       cy="87.679276"
       rx="11.28971"
       ry="11.289873" />
    <path
       style="fill:none;stroke:#ff0000;stroke-width:1px;stroke-linecap:butt;stroke-linejoin:miter;stroke-opacity:1"
       d="m 41.10779,87.67928 h 5.875"
       id="path200" />
    <path
       style="fill:none;stroke:#ff0000;stroke-width:1px;stroke-linecap:butt;stroke-linejoin:miter;stroke-opacity:1"
       d="m 44.04529,84.74178 v 5.875"
       id="path201" />
    <ellipse
       style="fill:none;stroke:#ff0000;stroke-width:0.760098;stroke-linecap:round;stroke-dasharray:0.0380047, 0.0380047;stroke-dashoffset:0;stroke-opacity:1"
       id="ellipse201"
       cx="44.045177"
       cy="87.679276"
       rx="8.5812826"
       ry="8.5814066" />
    <ellipse
       style="fill:none;stroke:#ff0000;stroke-width:0.550183;stroke-linecap:round;stroke-dasharray:0.027509, 0.027509;stroke-dashoffset:0;stroke-opacity:1"
       id="ellipse202"
       cx="44.045208"
       cy="87.679276"
       rx="6.2114086"
       ry="6.2114987" />
    <ellipse
       style="fill:none;stroke:#ff0000;stroke-width:1;stroke-linecap:round;stroke-dasharray:0.0499998, 0.0499998;stroke-dashoffset:0;stroke-opacity:1"
       id="ellipse203"
       cx="44.045143"
       cy="122.75275"
       rx="11.28971"
       ry="11.289873" />
    <path
       style="fill:none;stroke:#ff0000;stroke-width:1px;stroke-linecap:butt;stroke-linejoin:miter;stroke-opacity:1"
       d="m 41.10779,122.75275 h 5.875"
       id="path203" />
    <path
       style="fill:none;stroke:#ff0000;stroke-width:1px;stroke-linecap:butt;stroke-linejoin:miter;stroke-opacity:1"
       d="m 44.04529,119.81525 v 5.875"
       id="path204" />
    <ellipse
       style="fill:none;stroke:#ff0000;stroke-width:0.760098;stroke-linecap:round;stroke-dasharray:0.0380047, 0.0380047;stroke-dashoffset:0;stroke-opacity:1"
       id="ellipse204"
       cx="44.045177"
       cy="122.75275"
       rx="8.5812826"
       ry="8.5814066" />
    <ellipse
       style="fill:none;stroke:#ff0000;stroke-width:0.550183;stroke-linecap:round;stroke-dasharray:0.027509, 0.027509;stroke-dashoffset:0;stroke-opacity:1"
       id="ellipse205"
       cx="44.045208"
       cy="122.75275"
       rx="6.2114086"
       ry="6.2114987" />
    <ellipse
       style="fill:none;stroke:#ff0000;stroke-width:1;stroke-linecap:round;stroke-dasharray:0.0499998, 0.0499998;stroke-dashoffset:0;stroke-opacity:1"
       id="ellipse207"
       cx="44.045143"
       cy="157.82625"
       rx="11.28971"
       ry="11.289873" />
    <path
       style="fill:none;stroke:#ff0000;stroke-width:1px;stroke-linecap:butt;stroke-linejoin:miter;stroke-opacity:1"
       d="m 41.10779,157.82624 h 5.875"
       id="path207" />
    <path
       style="fill:none;stroke:#ff0000;stroke-width:1px;stroke-linecap:butt;stroke-linejoin:miter;stroke-opacity:1"
       d="m 44.04529,154.88874 v 5.875"
       id="path208" />
    <ellipse
       style="fill:none;stroke:#ff0000;stroke-width:0.760098;stroke-linecap:round;stroke-dasharray:0.0380047, 0.0380047;stroke-dashoffset:0;stroke-opacity:1"
       id="ellipse208"
       cx="44.045177"
       cy="157.82625"
       rx="8.5812826"
       ry="8.5814066" />
    <ellipse
       style="fill:none;stroke:#ff0000;stroke-width:0.550183;stroke-linecap:round;stroke-dasharray:0.027509, 0.027509;stroke-dashoffset:0;stroke-opacity:1"
       id="ellipse209"
       cx="44.045208"
       cy="157.82625"
       rx="6.2114086"
       ry="6.2114987" />
    <ellipse
       style="fill:none;stroke:#ff0000;stroke-width:1;stroke-linecap:round;stroke-dasharray:0.0499998, 0.0499998;stroke-dashoffset:0;stroke-opacity:1"
       id="ellipse210"
       cx="44.045143"
       cy="192.89972"
       rx="11.28971"
       ry="11.289873" />
    <path
       style="fill:none;stroke:#ff0000;stroke-width:1px;stroke-linecap:butt;stroke-linejoin:miter;stroke-opacity:1"
       d="m 41.10779,192.89972 h 5.875"
       id="path210" />
    <path
       style="fill:none;stroke:#ff0000;stroke-width:1px;stroke-linecap:butt;stroke-linejoin:miter;stroke-opacity:1"
       d="m 44.04529,189.96222 v 5.875"
       id="path211" />
    <ellipse
       style="fill:none;stroke:#ff0000;stroke-width:0.760098;stroke-linecap:round;stroke-dasharray:0.0380047, 0.0380047;stroke-dashoffset:0;stroke-opacity:1"
       id="ellipse212"
       cx="44.045177"
       cy="192.89972"
       rx="8.5812826"
       ry="8.5814066" />
    <ellipse
       style="fill:none;stroke:#ff0000;stroke-width:0.550183;stroke-linecap:round;stroke-dasharray:0.027509, 0.027509;stroke-dashoffset:0;stroke-opacity:1"
       id="ellipse213"
       cx="44.045208"
       cy="192.89972"
       rx="6.2114086"
       ry="6.2114987" />
    <ellipse
       style="fill:none;stroke:#ff0000;stroke-width:1;stroke-linecap:round;stroke-dasharray:0.0499998, 0.0499998;stroke-dashoffset:0;stroke-opacity:1"
       id="ellipse215"
       cx="44.045143"
       cy="227.97321"
       rx="11.28971"
       ry="11.289873" />
    <path
       style="fill:none;stroke:#ff0000;stroke-width:1px;stroke-linecap:butt;stroke-linejoin:miter;stroke-opacity:1"
       d="m 41.10779,227.97321 h 5.875"
       id="path215" />
    <path
       style="fill:none;stroke:#ff0000;stroke-width:1px;stroke-linecap:butt;stroke-linejoin:miter;stroke-opacity:1"
       d="m 44.04529,225.03571 v 5.875"
       id="path216" />
    <ellipse
       style="fill:none;stroke:#ff0000;stroke-width:0.760098;stroke-linecap:round;stroke-dasharray:0.0380047, 0.0380047;stroke-dashoffset:0;stroke-opacity:1"
       id="ellipse216"
       cx="44.045177"
       cy="227.97321"
       rx="8.5812826"
       ry="8.5814066" />
    <ellipse
       style="fill:none;stroke:#ff0000;stroke-width:0.550183;stroke-linecap:round;stroke-dasharray:0.027509, 0.027509;stroke-dashoffset:0;stroke-opacity:1"
       id="ellipse218"
       cx="44.045208"
       cy="227.97321"
       rx="6.2114086"
       ry="6.2114987" />
    <ellipse
       style="fill:none;stroke:#ff0000;stroke-width:1;stroke-linecap:round;stroke-dasharray:0.0499998, 0.0499998;stroke-dashoffset:0;stroke-opacity:1"
       id="ellipse219"
       cx="44.045143"
       cy="263.04669"
       rx="11.28971"
       ry="11.289873" />
    <path
       style="fill:none;stroke:#ff0000;stroke-width:1px;stroke-linecap:butt;stroke-linejoin:miter;stroke-opacity:1"
       d="m 41.10779,263.04669 h 5.875"
       id="path219" />
    <path
       style="fill:none;stroke:#ff0000;stroke-width:1px;stroke-linecap:butt;stroke-linejoin:miter;stroke-opacity:1"
       d="m 44.04529,260.10919 v 5.875"
       id="path220" />
    <ellipse
       style="fill:none;stroke:#ff0000;stroke-width:0.760098;stroke-linecap:round;stroke-dasharray:0.0380047, 0.0380047;stroke-dashoffset:0;stroke-opacity:1"
       id="ellipse221"
       cx="44.045177"
       cy="263.04669"
       rx="8.5812826"
       ry="8.5814066" />
    <ellipse
       style="fill:none;stroke:#ff0000;stroke-width:0.550183;stroke-linecap:round;stroke-dasharray:0.027509, 0.027509;stroke-dashoffset:0;stroke-opacity:1"
       id="ellipse222"
       cx="44.045208"
       cy="263.04669"
       rx="6.2114086"
       ry="6.2114987" />
    <ellipse
       style="fill:none;stroke:#ff0000;stroke-width:1;stroke-linecap:round;stroke-dasharray:0.0499998, 0.0499998;stroke-dashoffset:0;stroke-opacity:1"
       id="ellipse223"
       cx="44.045143"
       cy="298.12018"
       rx="11.28971"
       ry="11.289873" />
    <path
       style="fill:none;stroke:#ff0000;stroke-width:1px;stroke-linecap:butt;stroke-linejoin:miter;stroke-opacity:1"
       d="m 41.10779,298.12018 h 5.875"
       id="path223" />
    <path
       style="fill:none;stroke:#ff0000;stroke-width:1px;stroke-linecap:butt;stroke-linejoin:miter;stroke-opacity:1"
       d="m 44.04529,295.18268 v 5.875"
       id="path224" />
    <ellipse
       style="fill:none;stroke:#ff0000;stroke-width:0.760098;stroke-linecap:round;stroke-dasharray:0.0380047, 0.0380047;stroke-dashoffset:0;stroke-opacity:1"
       id="ellipse224"
       cx="44.045177"
       cy="298.12018"
       rx="8.5812826"
       ry="8.5814066" />
    <ellipse
       style="fill:none;stroke:#ff0000;stroke-width:0.550183;stroke-linecap:round;stroke-dasharray:0.027509, 0.027509;stroke-dashoffset:0;stroke-opacity:1"
       id="ellipse225"
       cx="44.045208"
       cy="298.12018"
       rx="6.2114086"
       ry="6.2114987" />
    <ellipse
       style="fill:none;stroke:#ff0000;stroke-width:1;stroke-linecap:round;stroke-dasharray:0.0499998, 0.0499998;stroke-dashoffset:0;stroke-opacity:1"
       id="ellipse226"
       cx="44.045143"
       cy="333.19366"
       rx="11.28971"
       ry="11.289873" />
    <path
       style="fill:none;stroke:#ff0000;stroke-width:1px;stroke-linecap:butt;stroke-linejoin:miter;stroke-opacity:1"
       d="m 41.10779,333.19366 h 5.875"
       id="path226" />
    <path
       style="fill:none;stroke:#ff0000;stroke-width:1px;stroke-linecap:butt;stroke-linejoin:miter;stroke-opacity:1"
       d="m 44.04529,330.25616 v 5.875"
       id="path227" />
    <ellipse
       style="fill:none;stroke:#ff0000;stroke-width:0.760098;stroke-linecap:round;stroke-dasharray:0.0380047, 0.0380047;stroke-dashoffset:0;stroke-opacity:1"
       id="ellipse227"
       cx="44.045177"
       cy="333.19366"
       rx="8.5812826"
       ry="8.5814066" />
    <ellipse
       style="fill:none;stroke:#ff0000;stroke-width:0.550183;stroke-linecap:round;stroke-dasharray:0.027509, 0.027509;stroke-dashoffset:0;stroke-opacity:1"
       id="ellipse228"
       cx="44.045208"
       cy="333.19366"
       rx="6.2114086"
       ry="6.2114987" />
    <ellipse
       style="fill:none;stroke:#0000ff;stroke-width:1;stroke-linecap:round;stroke-dasharray:1, 2;stroke-dashoffset:0;stroke-opacity:1"
       id="ellipse229"
       cx="15.305943"
       cy="87.693718"
       rx="10.951986"
       ry="10.951961" />
    <path
       style="fill:none;stroke:#0000ff;stroke-width:1px;stroke-linecap:butt;stroke-linejoin:miter;stroke-opacity:1"
       d="m 12.36845,87.69371 h 5.875"
       id="path229" />
    <path
       style="fill:none;stroke:#0000ff;stroke-width:1px;stroke-linecap:butt;stroke-linejoin:miter;stroke-opacity:1"
       d="m 15.30595,84.75621 v 5.875"
       id="path230" />
    <ellipse
       style="fill:none;stroke:#0000ff;stroke-width:1;stroke-linecap:round;stroke-dasharray:1, 2;stroke-dashoffset:0;stroke-opacity:1"
       id="ellipse231"
       cx="15.305943"
       cy="122.7672"
       rx="10.951986"
       ry="10.951961" />
    <path
       style="fill:none;stroke:#0000ff;stroke-width:1px;stroke-linecap:butt;stroke-linejoin:miter;stroke-opacity:1"
       d="m 12.36845,122.76719 h 5.875"
       id="path231" />
    <path
       style="fill:none;stroke:#0000ff;stroke-width:1px;stroke-linecap:butt;stroke-linejoin:miter;stroke-opacity:1"
       d="m 15.30595,119.82969 v 5.875"
       id="path232" />
    <ellipse
       style="fill:none;stroke:#0000ff;stroke-width:1;stroke-linecap:round;stroke-dasharray:1, 2;stroke-dashoffset:0;stroke-opacity:1"
       id="ellipse233"
       cx="15.305943"
       cy="157.84068"
       rx="10.951986"
       ry="10.951961" />
    <path
       style="fill:none;stroke:#0000ff;stroke-width:1px;stroke-linecap:butt;stroke-linejoin:miter;stroke-opacity:1"
       d="m 12.36845,157.84068 h 5.875"
       id="path233" />
    <path
       style="fill:none;stroke:#0000ff;stroke-width:1px;stroke-linecap:butt;stroke-linejoin:miter;stroke-opacity:1"
       d="m 15.30595,154.90318 v 5.875"
       id="path234" />
    <ellipse
       style="fill:none;stroke:#0000ff;stroke-width:1;stroke-linecap:round;stroke-dasharray:1, 2;stroke-dashoffset:0;stroke-opacity:1"
       id="ellipse235"
       cx="15.305943"
       cy="192.91417"
       rx="10.951986"
       ry="10.951961" />
    <path
       style="fill:none;stroke:#0000ff;stroke-width:1px;stroke-linecap:butt;stroke-linejoin:miter;stroke-opacity:1"
       d="m 12.36845,192.91416 h 5.875"
       id="path235" />
    <path
       style="fill:none;stroke:#0000ff;stroke-width:1px;stroke-linecap:butt;stroke-linejoin:miter;stroke-opacity:1"
       d="m 15.30595,189.97666 v 5.875"
       id="path236" />
    <ellipse
       style="fill:none;stroke:#0000ff;stroke-width:1;stroke-linecap:round;stroke-dasharray:1, 2;stroke-dashoffset:0;stroke-opacity:1"
       id="ellipse237"
       cx="15.305943"
       cy="227.98766"
       rx="10.951986"
       ry="10.951961" />
    <path
       style="fill:none;stroke:#0000ff;stroke-width:1px;stroke-linecap:butt;stroke-linejoin:miter;stroke-opacity:1"
       d="m 12.36845,227.98765 h 5.875"
       id="path237" />
    <path
       style="fill:none;stroke:#0000ff;stroke-width:1px;stroke-linecap:butt;stroke-linejoin:miter;stroke-opacity:1"
       d="m 15.30595,225.05015 v 5.875"
       id="path238" />
    <ellipse
       style="fill:none;stroke:#0000ff;stroke-width:1;stroke-linecap:round;stroke-dasharray:1, 2;stroke-dashoffset:0;stroke-opacity:1"
       id="ellipse239"
       cx="15.305943"
       cy="263.06113"
       rx="10.951986"
       ry="10.951961" />
    <path
       style="fill:none;stroke:#0000ff;stroke-width:1px;stroke-linecap:butt;stroke-linejoin:miter;stroke-opacity:1"
       d="m 12.36845,263.06113 h 5.875"
       id="path239" />
    <path
       style="fill:none;stroke:#0000ff;stroke-width:1px;stroke-linecap:butt;stroke-linejoin:miter;stroke-opacity:1"
       d="m 15.30595,260.12363 v 5.875"
       id="path240" />
    <ellipse
       style="fill:none;stroke:#0000ff;stroke-width:1;stroke-linecap:round;stroke-dasharray:1, 2;stroke-dashoffset:0;stroke-opacity:1"
       id="ellipse241"
       cx="15.305943"
       cy="298.13464"
       rx="10.951986"
       ry="10.951961" />
    <path
       style="fill:none;stroke:#0000ff;stroke-width:1px;stroke-linecap:butt;stroke-linejoin:miter;stroke-opacity:1"
       d="m 12.36845,298.13462 h 5.875"
       id="path241" />
    <path
       style="fill:none;stroke:#0000ff;stroke-width:1px;stroke-linecap:butt;stroke-linejoin:miter;stroke-opacity:1"
       d="m 15.30595,295.19712 v 5.875"
       id="path242" />
    <ellipse
       style="fill:none;stroke:#0000ff;stroke-width:1;stroke-linecap:round;stroke-dasharray:1, 2;stroke-dashoffset:0;stroke-opacity:1"
       id="ellipse243"
       cx="15.305943"
       cy="333.2081"
       rx="10.951986"
       ry="10.951961" />
    <path
       style="fill:none;stroke:#0000ff;stroke-width:1px;stroke-linecap:butt;stroke-linejoin:miter;stroke-opacity:1"
       d="m 12.36845,333.2081 h 5.875"
       id="path243" />
    <path
       style="fill:none;stroke:#0000ff;stroke-width:1px;stroke-linecap:butt;stroke-linejoin:miter;stroke-opacity:1"
       d="m 15.30595,330.2706 v 5.875"
       id="path244" />
    <ellipse
       style="fill:none;fill-opacity:1;stroke:#0000ff;stroke-width:0.2;stroke-linecap:round;stroke-dasharray:0.0099999, 0.0099999;stroke-dashoffset:0;stroke-opacity:1"
       id="ellipse52"
       cx="34.02422"
       cy="42.584389"
       rx="1.6684394"
       ry="1.6684076" />
    <path
       style="fill:none;stroke:#0000ff;stroke-width:0.2;stroke-linecap:butt;stroke-linejoin:miter;stroke-dasharray:none;stroke-opacity:1"
       d="m 32.25571,42.584407 3.537,-2.8e-5"
       id="path61" />
    <path
       style="fill:none;stroke:#0000ff;stroke-width:0.2;stroke-linecap:butt;stroke-linejoin:miter;stroke-dasharray:none;stroke-opacity:1"
       d="m 34.0242,40.815894 3e-5,3.536999"
       id="path62" />
  </g>
</svg>
